# xmcd
# 
# Track frame offsets:
#     150
#     30950
#     62405
#     97800
#     116245
#     134840
#     165192
# 
# Disc length: 2494
# 
# Revision: 0
# Processed by: cddbd v1.5.2PL0 Copyright (c) Steve Scherf et al.
# Submitted via: BonkEnc v1.0.8
# 
DISCID=4f09bc07
DTITLE=川崎燎 - Mirror Of Mind
DYEAR=1979
DGENRE=Fusion
TTITLE0=Trinkets and Things
TTITLE1=I've Found The Way Of Love
TTITLE2=Dreams For Radha - Part I,II&III
TTITLE3=Brasiliana
TTITLE4=Winter's Here
TTITLE5=In and Out Of Love
TTITLE6=Little One
EXTD=
EXTT0=
EXTT1=
EXTT2=
EXTT3=
EXTT4=
EXTT5=
EXTT6=
PLAYORDER=
